<?xml version="1.0" encoding="UTF-8"?>
<svg version="1.1" xmlns="http://www.w3.org/2000/svg" width="516" height="220">
<path d="M0 0 C170.28 0 340.56 0 516 0 C516 72.6 516 145.2 516 220 C345.72 220 175.44 220 0 220 C0 147.4 0 74.8 0 0 Z " fill="#242424" transform="translate(0,0)"/>
<path d="M0 0 C50.35176282 0 50.35176282 0 59.28515625 8.8203125 C63.20568189 13.80357743 63.66360612 19.80634288 63 26 C61.23402033 31.52000832 58.51638574 34.91595167 53.78125 38.1875 C52 39 52 39 48 39 C48 39.66 48 40.32 48 41 C48.99 41.04125 49.98 41.0825 51 41.125 C56.64054692 41.94877156 60.64460229 45.41368095 64.39453125 49.53125 C68.03217875 54.77563226 67.79127689 60.87372219 67 67 C65.22589098 73.28811422 61.35181969 77.43571754 56 81 C48.97255198 84.64572931 42.79734579 85.56085058 34.9609375 85.390625 C33.61962769 85.38458252 33.61962769 85.38458252 32.2512207 85.37841797 C28.95893386 85.35772759 25.66694299 85.30188501 22.375 85.25 C14.99125 85.1675 7.6075 85.085 0 85 C0 56.95 0 28.9 0 0 Z " fill="#3775AC" transform="translate(273,76)"/>
<path d="M0 0 C6.93 0 13.86 0 21 0 C23.36557327 5.32253985 25.54689504 10.26193663 27.41015625 15.70629883 C27.8373999 16.94821487 28.26464355 18.19013092 28.70483398 19.46968079 C29.15748943 20.79876352 29.6100422 22.12788122 30.0625 23.45703125 C30.54010447 24.85043346 31.01805721 26.24371635 31.49633789 27.6368866 C32.74782192 31.28551523 33.99434526 34.9358197 35.23986816 38.58648682 C36.24870062 41.54080901 37.26093924 44.49395831 38.27339172 47.44704151 C42.55995147 59.95002522 46.83564971 72.45561942 51 85 C44.73 85 38.46 85 32 85 C29.89973547 78.6992064 27.90845535 72.36151784 26 66 C11.15 65.505 11.15 65.505 -4 65 C-4.99 68.3 -5.98 71.6 -7 75 C-8 78.33333333 -9 81.66666667 -10 85 C-16.27 85 -22.54 85 -29 85 C-26.58918937 76.7157759 -23.84863231 68.56506866 -21.03515625 60.41015625 C-20.55563765 59.01595406 -20.0762653 57.62170155 -19.59703064 56.22740173 C-18.59723112 53.31988325 -17.59613165 50.41281697 -16.59399414 47.50610352 C-15.32012395 43.81109758 -14.04882292 40.11521436 -12.77842045 36.41901493 C-11.78997352 33.54370742 -10.80050062 30.66875381 -9.81069756 27.79391289 C-9.34207903 26.43266042 -8.87368467 25.07133076 -8.40553474 23.70991707 C-5.67725504 15.77892627 -2.89061162 7.87352742 0 0 Z " fill="#3979A1" transform="translate(375,76)"/>
<path d="M0 0 C0 0.66 0 1.32 0 2 C0.69351563 2.05285156 1.38703125 2.10570312 2.1015625 2.16015625 C6.03902886 3.30106632 8.47510631 5.67132999 11.375 8.4375 C11.94790771 8.97665039 12.52081543 9.51580078 13.11108398 10.07128906 C17.80724155 14.59889394 21.67180383 19.37284752 25 25 C25.38414062 25.64066406 25.76828125 26.28132813 26.1640625 26.94140625 C30.68116661 35.19977597 35.14197792 46.51141359 33 56 C30.9375 58.1875 30.9375 58.1875 28 59 C24.375 59.0625 24.375 59.0625 21 58 C18.46549343 54.56031251 17.67581086 50.82622236 16.625 46.75 C14.4533608 38.4685158 11.06711009 31.5892136 5.13671875 25.375 C4 24 4 24 4 22 C3.43410156 21.73960938 2.86820312 21.47921875 2.28515625 21.2109375 C-0.20731863 19.89013884 -2.3115135 18.32343792 -4.5625 16.625 C-16.1169543 8.42065375 -29.18309588 6.87708248 -43 8 C-56.53945729 10.45098136 -67.63527985 17.15046593 -76 28 C-74.96359375 28.02578125 -73.9271875 28.0515625 -72.859375 28.078125 C-71.48954199 28.13441951 -70.11975195 28.19176655 -68.75 28.25 C-68.06808594 28.26417969 -67.38617188 28.27835938 -66.68359375 28.29296875 C-63.28999026 28.45770678 -61.29759654 28.77822423 -58.546875 30.828125 C-56.27372471 34.01971985 -56.45454981 36.18184869 -57 40 C-58.5234375 42.18554688 -58.5234375 42.18554688 -61 44 C-63.84103832 44.39792556 -66.28682294 44.56171751 -69.125 44.53125 C-69.90891113 44.5350769 -70.69282227 44.53890381 -71.50048828 44.54284668 C-73.15463549 44.54556353 -74.80882583 44.5382181 -76.46289062 44.52148438 C-78.99186162 44.50006892 -81.51799214 44.52129097 -84.046875 44.546875 C-85.65625626 44.54423168 -87.26563575 44.53910661 -88.875 44.53125 C-89.6292627 44.53934692 -90.38352539 44.54744385 -91.16064453 44.55578613 C-94.68784453 44.49292952 -96.62540171 44.29231831 -99.4453125 42.09179688 C-103.29562503 36.91128843 -102.22397121 30.7112325 -102.24023438 24.50683594 C-102.24990306 22.27240245 -102.28090702 20.03890358 -102.3125 17.8046875 C-102.31903409 16.37500544 -102.32428296 14.94531682 -102.328125 13.515625 C-102.3374707 12.21915039 -102.34681641 10.92267578 -102.35644531 9.58691406 C-101.97134458 5.71164008 -101.03977914 3.29617384 -99 0 C-96.15916359 -1.42041821 -94.14522722 -1.31452272 -91 -1 C-88.69724444 0.8670991 -87.32176129 2.35647741 -86 5 C-85.93049459 6.54023996 -85.91547643 8.08334988 -85.9375 9.625 C-85.94652344 10.44226563 -85.95554687 11.25953125 -85.96484375 12.1015625 C-85.97644531 12.72804688 -85.98804687 13.35453125 -86 14 C-85.53851563 13.57589844 -85.07703125 13.15179688 -84.6015625 12.71484375 C-61.21071024 -8.31843249 -28.54459604 -16.31119774 0 0 Z " fill="#EDA53A" transform="translate(134,48)"/>
<path d="M0 0 C6.27 0 12.54 0 19 0 C25.5698646 11.55024583 31.86833209 23.21174774 38 35 C40.80555948 31.55284437 42.78730011 27.7702003 44.79296875 23.828125 C45.14386063 23.1457074 45.4947525 22.46328979 45.85627747 21.76019287 C46.97018192 19.5919019 48.0789046 17.42100934 49.1875 15.25 C49.94432035 13.77456456 50.70147815 12.29930217 51.45898438 10.82421875 C53.3105428 7.2184456 55.15506362 3.6091966 57 0 C63.27 0 69.54 0 76 0 C75.09716923 3.61132307 74.04650368 6.03407537 72.296875 9.26953125 C71.73444092 10.31061035 71.17200684 11.35168945 70.5925293 12.42431641 C69.68047729 14.10146729 69.68047729 14.10146729 68.75 15.8125 C68.12259656 16.99091771 67.49606211 18.16979845 66.87036133 19.34912109 C63.87297532 24.96175966 60.7921251 30.43421398 57.21484375 35.70703125 C46.49734709 51.90617331 46.27517856 66.16652491 47 85 C41.39 85 35.78 85 30 85 C30.07863281 82.95683594 30.15726562 80.91367188 30.23828125 78.80859375 C30.66375221 60.56957397 28.44515934 48.40071891 17.96582031 33.00732422 C14.60485812 27.86570322 11.70109904 22.47163118 8.75616455 17.0843811 C7.76745746 15.28182744 6.76739413 13.48609392 5.76318359 11.69213867 C1.12562651 3.37687953 1.12562651 3.37687953 0 0 Z " fill="#3A7E99" transform="translate(420,76)"/>
<path d="M0 0 C22.77 0 45.54 0 69 0 C69 4.95 69 9.9 69 15 C60.42 15 51.84 15 43 15 C43 38.1 43 61.2 43 85 C37.39 85 31.78 85 26 85 C26 61.9 26 38.8 26 15 C17.42 15 8.84 15 0 15 C0 10.05 0 5.1 0 0 Z " fill="#3670B4" transform="translate(193,76)"/>
<path d="M0 0 C0.99773437 -0.00515625 1.99546875 -0.0103125 3.0234375 -0.015625 C4.05984375 -0.00015625 5.09625 0.0153125 6.1640625 0.03125 C7.19273438 0.01578125 8.22140625 0.0003125 9.28125 -0.015625 C15.43088728 0.01607416 19.12890427 0.41227143 23.7890625 4.53125 C27.87579958 9.26326136 28.16155956 13.52937674 28.2265625 19.65625 C28.23671387 20.34944336 28.24686523 21.04263672 28.25732422 21.75683594 C28.16096841 27.40518624 26.47286241 30.42650012 23.0390625 34.71875 C17.90787275 38.85220841 12.05794788 38.75121089 5.7890625 38.53125 C5.7890625 40.84125 5.7890625 43.15125 5.7890625 45.53125 C7.04203125 45.47324219 8.295 45.41523438 9.5859375 45.35546875 C11.2369419 45.30856522 12.88798661 45.26306569 14.5390625 45.21875 C15.3640625 45.17685547 16.1890625 45.13496094 17.0390625 45.09179688 C23.17395438 44.96810954 23.17395438 44.96810954 26.33203125 47.859375 C28.11799107 51.13443269 28.49212544 52.85969911 27.7890625 56.53125 C25.57844651 59.11108092 23.78675022 60.37822167 20.39672852 60.89819336 C17.51718411 61.03428547 14.67109962 61.02722065 11.7890625 60.96875 C10.31179687 60.97938477 10.31179687 60.97938477 8.8046875 60.99023438 C3.67614772 60.94518639 -0.06893046 60.8929992 -4.2109375 57.53125 C-5.29375 56.665 -5.29375 56.665 -6.3984375 55.78125 C-10.83272854 50.27661285 -10.74748999 43.28286887 -10.2109375 36.53125 C-9.17381148 31.95061008 -7.63438403 28.77913517 -4.2109375 25.53125 C1.40294643 22.76306266 6.6095956 22.19418817 12.7890625 22.53125 C12.7890625 20.22125 12.7890625 17.91125 12.7890625 15.53125 C10.90960938 15.60085937 10.90960938 15.60085937 8.9921875 15.671875 C7.34116969 15.70939813 5.69012608 15.74579771 4.0390625 15.78125 C3.2140625 15.81476563 2.3890625 15.84828125 1.5390625 15.8828125 C-4.57290917 15.98139269 -4.57290917 15.98139269 -7.7578125 13.734375 C-9.88948178 10.50248932 -9.75127641 8.31362235 -9.2109375 4.53125 C-6.39313678 0.92046385 -4.53861474 0.02264052 0 0 Z " fill="#ECA53A" transform="translate(102.2109375,121.46875)"/>
<path d="M0 0 C2.30275556 1.8670991 3.67823871 3.35647741 5 6 C5.07181821 8.71760108 5.09299506 11.40859388 5.0625 14.125 C5.05798828 14.87910156 5.05347656 15.63320312 5.04882812 16.41015625 C5.03703499 18.27347127 5.01909942 20.13674555 5 22 C7.31 22 9.62 22 12 22 C11.95359375 20.74703125 11.9071875 19.4940625 11.859375 18.203125 C11.82185187 16.55210719 11.78545229 14.90106358 11.75 13.25 C11.71648437 12.425 11.68296875 11.6 11.6484375 10.75 C11.54966416 4.62605323 11.54966416 4.62605323 13.83203125 1.453125 C16.81291691 -0.54487404 18.47571847 -0.5753929 22 0 C24.64990234 1.32055664 24.64990234 1.32055664 27 4 C27.77121237 7.78128763 27.70014895 11.52314698 27.6640625 15.37109375 C27.66884613 16.48557388 27.67362976 17.60005402 27.67855835 18.74830627 C27.68195972 21.10443534 27.67274091 23.46061144 27.65185547 25.81665039 C27.62512121 29.42115767 27.65158519 33.02254349 27.68359375 36.62695312 C27.6802892 38.91667354 27.67388205 41.20639201 27.6640625 43.49609375 C27.67418365 44.57330185 27.68430481 45.65050995 27.69473267 46.76036072 C27.5781042 54.21776364 27.5781042 54.21776364 24.64990234 58.17993164 C22 60 22 60 18.9375 60.625 C16 60 16 60 13.83203125 58.01171875 C11.35722207 53.94332243 11.5471247 50.84192762 11.75 46.1875 C11.76804688 45.39923828 11.78609375 44.61097656 11.8046875 43.79882812 C11.85155952 41.86535739 11.9232959 39.93251715 12 38 C10.77925781 38.02707031 9.55851562 38.05414063 8.30078125 38.08203125 C5.02480572 38.07986603 2.30313788 37.78218358 -0.8125 36.6875 C-1.54082031 36.44386719 -2.26914063 36.20023438 -3.01953125 35.94921875 C-5.2124004 34.89819862 -6.50205221 33.91378187 -8 32 C-8 31.01 -8 30.02 -8 29 C-8.66 29 -9.32 29 -10 29 C-11.10407331 24.50357241 -11.21801557 20.16425972 -11.25 15.5625 C-11.270625 14.82451172 -11.29125 14.08652344 -11.3125 13.32617188 C-11.3469359 8.48362299 -10.67337748 5.19824084 -8 1 C-5.15916359 -0.42041821 -3.14522722 -0.31452272 0 0 Z " fill="#ECA53A" transform="translate(148,122)"/>
<path d="M0 0 C2.68532552 3.54846586 3.34420936 7.42702119 4.3125 11.6875 C7.4551371 24.72541493 15.18908125 35.39956347 26.4375 42.6875 C31.58205329 46.09316223 31.58205329 46.09316223 32.8125 49.625 C33.02942587 53.52966565 32.46257496 55.00973041 30 58 C27.00818583 59.49590709 25.3583794 59.42743011 22 59 C18.75195024 57.31893912 15.89797256 55.2216144 13 53 C12.31550781 52.48179687 11.63101563 51.96359375 10.92578125 51.4296875 C-1.16643215 41.59437051 -10.50406022 25.59913723 -12.3515625 10.0390625 C-12.49100529 7.24286763 -12.49120328 4.75541651 -12 2 C-8.47336648 -1.84723657 -4.78680529 -1.50695722 0 0 Z " fill="#ECA53A" transform="translate(45,108)"/>
<path d="M0 0 C3.135 -0.0825 6.27 -0.165 9.5 -0.25 C10.47130859 -0.28641602 11.44261719 -0.32283203 12.44335938 -0.36035156 C19.44276455 -0.44862722 24.68289209 1.09753058 30 5.75 C31.51119049 9.1501786 31.52593025 12.38332893 31 16 C29.22124143 20.21284924 27.05152123 21.97423939 23 24 C20.11734851 24.96088383 18.32337729 25.11670941 15.33203125 25.09765625 C14.52741455 25.09515869 13.72279785 25.09266113 12.89379883 25.09008789 C11.36855591 25.07643188 11.36855591 25.07643188 9.8125 25.0625 C4.9553125 25.0315625 4.9553125 25.0315625 0 25 C0 16.75 0 8.5 0 0 Z " fill="#242627" transform="translate(291,123)"/>
<path d="M0 0 C3.17625 -0.0825 6.3525 -0.165 9.625 -0.25 C10.6145166 -0.28641602 11.6040332 -0.32283203 12.62353516 -0.36035156 C18.25795762 -0.43096692 21.59081997 0.13327429 26 4 C28.51358934 7.77038401 28.14641836 9.51573325 27.53515625 13.84375 C26.76575207 16.94383107 25.63285543 18.22104363 23 20 C17.9336987 22.13197294 13.51025032 22.24272747 8.125 22.125 C5.44375 22.08375 2.7625 22.0425 0 22 C0 14.74 0 7.48 0 0 Z " fill="#242527" transform="translate(291,90)"/>
<path d="M0 0 C0.66 0 1.32 0 2 0 C3.12674129 3.52027845 4.25107707 7.04132081 5.375 10.5625 C5.69210937 11.55314453 6.00921875 12.54378906 6.3359375 13.56445312 C7.23196073 16.37385929 8.11933449 19.18574486 9 22 C9.22204102 22.70495605 9.44408203 23.40991211 9.67285156 24.13623047 C10.63149717 27.30212799 11 29.63382942 11 33 C4.4 33 -2.2 33 -9 33 C-8.36091916 27.88735331 -7.87311329 23.99155154 -6.40625 19.2578125 C-6.09816406 18.25492188 -5.79007812 17.25203125 -5.47265625 16.21875 C-5.15167969 15.1978125 -4.83070313 14.176875 -4.5 13.125 C-4.01853516 11.55878906 -4.01853516 11.55878906 -3.52734375 9.9609375 C-1.16477997 2.32955995 -1.16477997 2.32955995 0 0 Z " fill="#242628" transform="translate(385,94)"/>
</svg>
